<svg id="Layer_1" xmlns="http://www.w3.org/2000/svg" viewBox="-657.1 278.5 140 140"><style>.st0{opacity:0.4;} .st1{fill:none;stroke:#000000;stroke-width:2;stroke-miterlimit:10;} .st2{fill:#FFFFFF;stroke:#000000;stroke-width:2;stroke-miterlimit:10;} .st3{fill:none;stroke:#0A4456;stroke-width:2;stroke-miterlimit:10;} .st4{fill:#FFFFFF;stroke:#0A4456;stroke-width:2;stroke-miterlimit:10;} .st5{fill:none;stroke:#094456;stroke-width:2;stroke-miterlimit:10;} .st6{fill:#FFFFFF;stroke:#094456;stroke-width:2;stroke-miterlimit:10;}</style><path class="st5" d="M-655 402.4v-5.3c0-1.7 1.4-3.1 3.1-3.1h9.6c1.7 0 3.1 1.4 3.1 3.1v5.6M-535 402.7v-5.3c0-1.7 1.4-3.1 3.1-3.1h9.6c1.7 0 3.1 1.4 3.1 3.1v5.6"/><path class="st5" d="M-647.4 394.9v-81c0-6.5 5.3-11.8 11.8-11.8h96.7c6.5 0 11.8 5.3 11.8 11.8v79.8"/><path class="st5" d="M-565.4 301.8v-.8c0-2.5 2.1-4.6 4.6-4.6 2.5 0 4.6 2.1 4.6 4.6v4.8c0 2.1-1.7 3.9-3.9 3.9-1.3 0-2.3 1-2.3 2.3v5.6M-613.7 301.8v-.8c0-2.5 2.1-4.6 4.6-4.6 2.5 0 4.6 2.1 4.6 4.6v4.8c0 2.1-1.7 3.9-3.9 3.9-1.3 0-2.3 1-2.3 2.3v5.6"/><path class="st5" d="M-611.2 353.5h12.5c1.5 0 2.8-1.2 2.8-2.8v-21.4c0-1.1 1.2-1.9 2.2-1.3l2.6 1.5c1.5.9 3.5.2 4.2-1.4l3.3-7.5c.6-1.5 0-3.2-1.4-3.9l-9.3-4.5c-.7-.3-1.4-.5-2.2-.5h-6.4c-.4 0-.7.3-.8.6-.4 2.3-2.9 5.4-5.9 5.4h-3c-3.1 0-5.6-2.3-5.9-5.3 0-.4-.4-.7-.8-.7h-6.4c-.8 0-1.5.2-2.2.5l-9.3 4.5c-1.5.7-2.1 2.4-1.4 3.9l3.3 7.5c.7 1.6 2.6 2.3 4.2 1.4l2.6-1.5c1-.6 2.2.2 2.2 1.3v21.4c0 1.5 1.2 2.8 2.8 2.8h12.3M-578.4 315.1v64.4c0 2 1.6 3.6 3.6 3.6h9.9c2 0 3.6-1.6 3.6-3.6v-41.4 41.3c0 2 1.6 3.6 3.6 3.6h9.7c2 0 3.6-1.6 3.6-3.6v-64.2c0-.3-.3-.6-.6-.6-4.2 0-29.5.1-33.1 0-.1.1-.3.2-.3.5zM-578.2 321.7h33.5M-614.6 401.1h-10.5c-.6 0-1-.5-1-1v-3.5c0-1.9 1.6-3.5 3.5-3.5h5.7c1.9 0 3.5 1.6 3.5 3.5v3.5c-.2.6-.6 1-1.2 1zM-597.9 401.1h-10.5c-.6 0-1-.5-1-1v-3.5c0-1.9 1.6-3.5 3.5-3.5h5.7c1.9 0 3.5 1.6 3.5 3.5v3.5c-.1.6-.6 1-1.2 1z"/></svg>