<svg id="Layer_1" xmlns="http://www.w3.org/2000/svg" viewBox="-329 331 140 140"><style>.st0{fill:#ECE5DF;stroke:#80786E;stroke-width:2;stroke-miterlimit:10;} .st1{fill:#D5C9BE;stroke:#80786E;stroke-width:2;stroke-miterlimit:10;} .st2{fill:#E5DCD3;stroke:#80786E;stroke-width:2;stroke-miterlimit:10;} .st3{fill:#FFFFFF;stroke:#80786E;stroke-width:2;stroke-miterlimit:10;} .st4{fill:none;stroke:#80786E;stroke-width:2;stroke-miterlimit:10;}</style><path class="st0" d="M-323.9 362.9h129.8v77.3h-129.8z"/><circle class="st1" cx="-259.3" cy="401.3" r="46.7"/><circle class="st2" cx="-259.3" cy="401.3" r="30.8"/><path class="st3" d="M-276.7 388.3s7.6 3.8 11.6 9.7c3.2 4.8 5.8 10.3 6.6 12.3.2.5.5.9.9 1.3l30.9 26.9c2.7 2.4 2.9 6.5.4 9.1-2.6 2.7-6.9 2.5-9.3-.3l-26.7-31.1c-.4-.5-.9-.8-1.4-1.1-2.5-1.2-9.9-5.1-12.9-7.2-3.6-2.6-9.2-10.9-9.2-10.9"/><path class="st4" d="M-268.6 408.6l-14.2-14.6M-265.3 405.3l-13.8-14.4"/><path class="st3" d="M-262.3 376.4c-2-1.5-4.8.3-4.3 2.7 1.1 5.1 5.1 13.2 12.7 19.9 13.1 11.5 16.9 12.2 20.3 14.9 2.6 2 16 15.6 21.9 21.6 1.5 1.6 4 1.5 5.5-.1 1.4-1.5 1.4-4-.1-5.4-10.7-10.3-49.3-47.4-51.4-49.7-1-1.2-2.9-2.6-4.6-3.9z"/></svg>