<svg id="Layer_1" xmlns="http://www.w3.org/2000/svg" viewBox="-329 331 140 140"><style>.st0{fill:#D5C9BE;stroke:#80786E;stroke-width:2;stroke-miterlimit:10;} .st1{fill:none;stroke:#80786E;stroke-width:2;stroke-miterlimit:10;} .st2{fill:#E5DCD3;stroke:#80786E;stroke-width:2;stroke-miterlimit:10;}</style><path class="st0" d="M-273.7 420.4h-5.8c-1.5 0-2.7 1.2-2.7 2.7v21.2c0 1.5 1.2 2.7 2.7 2.7h84.2c1.5 0 2.7-1.2 2.7-2.7v-21.2c0-1.5-1.2-2.7-2.7-2.7h-6.4"/><path class="st1" d="M-272.8 429.1h70.5M-326.8 456.4h135.6M-277.7 455.9v-8.6M-197 455.9v-8.6M-323.1 429.1h28M-309 429.1v27M-294.8 456l-14-12.7M-323.5 456.5L-309 443"/><path class="st2" d="M-276 348.8h41.2v28.3H-276z"/><path class="st1" d="M-255.1 349c4.9 4.3 4.3 13.3-.7 18.5-5.3 5.4-16.3 5.2-20.2-2.2"/><path class="st0" d="M-315.5 429.1l-2.3-12.3c-.2-1 .6-1.8 1.5-1.8h15.2c1 0 1.7.9 1.5 1.8l-2.2 12.3h-13.7z"/><path class="st1" d="M-311.3 414.6s-1.2-17.3-2.4-20.4M-304.8 398.5c-1 2.9-1.7 16.6-1.7 16.6"/><path class="st0" d="M-322.9 375.9c-2 1.3-.9 14.1 3.1 16.7s6.2 1.6 8 .1 2.4-6.8-.7-10.2-8.7-7.7-10.4-6.6zM-296.9 385.2c-2.2 0-9 4.7-9.3 8.3s2.1 6.2 4.9 5.8 4.7-3.3 5.3-7.7c.5-4.5.7-6.4-.9-6.4z"/><path class="st2" d="M-237.8 438.6h-34.8c-.5 0-.8-.4-.8-.8v-28.2c0-1.8 1.4-3.2 3.2-3.2h31.4c.5 0 1 .4 1 1v31.2zM-202.7 438.6h-34.8v-31c0-.7.5-1.2 1.2-1.2h31.2c1.8 0 3.2 1.4 3.2 3.2v28.2c0 .4-.3.8-.8.8z"/></svg>