<svg id="Layer_1" xmlns="http://www.w3.org/2000/svg" viewBox="-656 737 140 140"><style>.st0{opacity:0.4;} .st1{fill:none;stroke:#000000;stroke-width:2;stroke-miterlimit:10;} .st2{fill:#FFFFFF;stroke:#000000;stroke-width:2;stroke-miterlimit:10;} .st3{fill:none;stroke:#0A4456;stroke-width:2;stroke-miterlimit:10;} .st4{fill:#FFFFFF;stroke:#0A4456;stroke-width:2;stroke-miterlimit:10;} .st5{fill:none;stroke:#094456;stroke-width:2;stroke-miterlimit:10;} .st6{fill:#FFFFFF;stroke:#094456;stroke-width:2;stroke-miterlimit:10;}</style><path class="st5" d="M-565.6 839.7h-34.8c-.5 0-.8-.4-.8-.8v-28.2c0-1.8 1.4-3.2 3.2-3.2h31.4c.5 0 1 .4 1 1v31.2zM-530.5 839.7h-34.8v-31c0-.7.5-1.2 1.2-1.2h31.2c1.8 0 3.2 1.4 3.2 3.2v28.2c0 .4-.3.8-.8.8z"/><path class="st5" d="M-601.5 821.5h-5.8c-1.5 0-2.7 1.2-2.7 2.7v21.2c0 1.5 1.2 2.7 2.7 2.7h84.2c1.5 0 2.7-1.2 2.7-2.7v-21.2c0-1.5-1.2-2.7-2.7-2.7h-6.4M-600.6 830.2h70.5M-654.6 857.5H-519M-605.5 857v-8.6M-524.8 857v-8.6M-650.9 830.2h28M-636.8 830.2v27M-622.6 857.1l-14-12.7M-651.3 857.6l14.5-13.5M-603.8 749.9h41.2v28.3h-41.2z"/><path class="st5" d="M-582.9 750.1c4.9 4.3 4.3 13.3-.7 18.5-5.3 5.4-16.3 5.2-20.2-2.2M-643.3 830.2l-2.3-12.3c-.2-1 .6-1.8 1.5-1.8h15.2c1 0 1.7.9 1.5 1.8l-2.2 12.3h-13.7zM-639.1 815.7s-1.2-17.3-2.4-20.4M-632.6 799.6c-1 2.9-1.7 16.6-1.7 16.6M-650.7 777c-2 1.3-.9 14.1 3.1 16.7s6.2 1.6 8 .1c1.8-1.5 2.4-6.8-.7-10.2s-8.7-7.7-10.4-6.6zM-624.7 786.3c-2.2 0-9 4.7-9.3 8.3s2.1 6.2 4.9 5.8 4.7-3.3 5.3-7.7c.5-4.5.7-6.4-.9-6.4z"/></svg>