<svg id="Layer_1" xmlns="http://www.w3.org/2000/svg" viewBox="-656 972.2 140 140"><style>.st0{opacity:0.4;} .st1{fill:none;stroke:#000000;stroke-width:2;stroke-miterlimit:10;} .st2{fill:#FFFFFF;stroke:#000000;stroke-width:2;stroke-miterlimit:10;} .st3{fill:none;stroke:#0A4456;stroke-width:2;stroke-miterlimit:10;} .st4{fill:#FFFFFF;stroke:#0A4456;stroke-width:2;stroke-miterlimit:10;} .st5{fill:none;stroke:#094456;stroke-width:2;stroke-miterlimit:10;} .st6{fill:#FFFFFF;stroke:#094456;stroke-width:2;stroke-miterlimit:10;}</style><path class="st5" d="M-654.3 1083.8h135.1M-531.6 1082.9v-41.6M-538.6 997h14.1c.8 0 1.5.7 1.5 1.5v41.6c0 .8-.7 1.5-1.5 1.5h-14.1c-.8 0-1.5-.7-1.5-1.5v-41.6c0-.8.7-1.5 1.5-1.5z"/><circle class="st5" cx="-531.7" cy="1005.8" r="3.6"/><circle class="st5" cx="-531.7" cy="1019.2" r="3.6"/><circle class="st5" cx="-531.7" cy="1032.6" r="3.6"/><path class="st5" d="M-645.4 1040.3v34c0 1.3 1 2.3 2.3 2.3h85.6c1.3 0 2.3-1 2.3-2.3v-34c0-2.6-2.1-4.6-4.6-4.6h-80.9c-2.6 0-4.7 2-4.7 4.6z"/><path class="st5" d="M-624.1 1057h-10.7c-.4 0-.7-.3-.7-.7v-10.7c0-.4.3-.7.7-.7h10.7c.4 0 .7.3.7.7v10.7c0 .4-.3.7-.7.7z"/><circle class="st6" cx="-625" cy="1077.3" r="6.2"/><circle class="st6" cx="-575.9" cy="1077.4" r="6.1"/><path class="st5" d="M-603.2 1057h-10.7c-.4 0-.7-.3-.7-.7v-10.7c0-.4.3-.7.7-.7h10.7c.4 0 .7.3.7.7v10.7c.1.4-.3.7-.7.7zM-582.2 1057H-593c-.4 0-.7-.3-.7-.7v-10.7c0-.4.3-.7.7-.7h10.7c.4 0 .7.3.7.7v10.7c.1.4-.2.7-.6.7zM-555.4 1043.4h-14.1c-1.3 0-2.3 1.3-1.9 2.5l4.8 15.8c.2.8 1 1.4 1.9 1.4h8.9"/></svg>