<svg id="Layer_1" xmlns="http://www.w3.org/2000/svg" viewBox="-342.7 331 162.3 140"><style>.st0{fill:none;stroke:#80786E;stroke-width:2;stroke-miterlimit:10;} .st1{fill:#D5C9BE;stroke:#80786E;stroke-width:2;stroke-miterlimit:10;} .st2{fill:#FFFFFF;stroke:#80786E;stroke-width:2;stroke-miterlimit:10;} .st3{fill:#ECE5DF;stroke:#80786E;stroke-width:2;stroke-miterlimit:10;}</style><path class="st0" d="M-341.5 453.5h159.4M-196.8 452.4v-49.1"/><path class="st1" d="M-205 351.1h16.6c.9 0 1.8.8 1.8 1.8V402c0 .9-.8 1.8-1.8 1.8H-205c-.9 0-1.8-.8-1.8-1.8v-49.1c0-1 .8-1.8 1.8-1.8z"/><circle class="st2" cx="-196.9" cy="361.4" r="4.2"/><circle class="st2" cx="-196.9" cy="377.3" r="4.2"/><circle class="st2" cx="-196.9" cy="393.1" r="4.2"/><path class="st3" d="M-331 402.2v40.1c0 1.5 1.2 2.7 2.7 2.7h101c1.5 0 2.7-1.2 2.7-2.7v-40.1c0-3.1-2.5-5.4-5.4-5.4h-95.4c-3.1-.1-5.6 2.3-5.6 5.4z"/><path class="st2" d="M-305.9 421.9h-12.6c-.5 0-.8-.4-.8-.8v-12.6c0-.5.4-.8.8-.8h12.6c.5 0 .8.4.8.8V421c0 .5-.3.9-.8.9z"/><circle class="st1" cx="-307" cy="445.8" r="7.3"/><circle class="st1" cx="-249" cy="445.9" r="7.2"/><path class="st2" d="M-281.2 421.9h-12.6c-.5 0-.8-.4-.8-.8v-12.6c0-.5.4-.8.8-.8h12.6c.5 0 .8.4.8.8V421c.1.5-.4.9-.8.9zM-256.5 421.9h-12.7c-.5 0-.8-.4-.8-.8v-12.6c0-.5.4-.8.8-.8h12.6c.5 0 .8.4.8.8V421c.2.5-.2.9-.7.9zM-225.5 405.8h-14.9c-1.5 0-2.7 1.5-2.2 2.9l3.9 18c.2.9 3 2.3 4 2.3h9.3"/></svg>