<?xml version="1.0" encoding="utf-8"?>
<!-- Generator: Adobe Illustrator 19.0.1, SVG Export Plug-In . SVG Version: 6.00 Build 0)  -->
<svg version="1.1" id="Layer_1" xmlns="http://www.w3.org/2000/svg" xmlns:xlink="http://www.w3.org/1999/xlink" x="0px" y="0px"
	 viewBox="0 0 136.7 120.9" style="enable-background:new 0 0 136.7 120.9;" xml:space="preserve">
<style type="text/css">
	.st0{fill:#5D5D5D;}
	.st1{fill:#333333;}
	.st2{fill:#F2F0F0;}
	.st3{fill:none;stroke:#848484;stroke-width:5;stroke-linecap:round;stroke-miterlimit:10;}
	.st4{fill:#848484;}
	.st5{fill:#FFFFFF;}
	.st6{fill:#C4C4C4;}
	.st7{fill:#9E9E9E;}
	.st8{display:none;}
	.st9{display:inline;fill:none;stroke:#ED1C24;stroke-width:0.1;}
	.st10{fill:none;stroke:#000000;stroke-miterlimit:10;}
	.st11{opacity:0.4;}
	.st12{fill:#E2E0E0;}
	.st13{fill:none;stroke:#1E1E1E;stroke-miterlimit:10;}
</style>
<path d="M96.4,100.3H38.8V53.6l-9.7,7.2l-13.9-21l22.3-14.2l0.6,0c0.1,0,9.9,0.4,13.5,0.4h1.5l0.4,1.4c0.8,2.8,5.5,10.4,13.2,10.4
	c0.1,0,0.2,0,0.3,0c0.5,0,0.9,0,1.3,0v0l0,0c0,0,0,0,0,0v0c7.7,0,12.4-7.6,13.3-10.4l0.4-1.4h1.5c3.7,0,13.4-0.4,13.5-0.4l0.6,0
	l22.3,14.2l-13.9,21l-9.7-7.2V100.3z M42.8,96.3h49.6V45.7l12.7,9.4l9.3-14.1L96.7,29.6c-2,0.1-8,0.3-11.7,0.4
	c-1.8,4.1-6.8,10.7-14.5,11.7l0,0.1l-1.9,0c-0.1,0-0.2,0-0.2,0v0c-0.1,0-0.6,0-1.6,0c0,0,0,0,0,0c-8.8,0-14.5-7.3-16.5-11.8
	c-3.6-0.1-9.7-0.3-11.7-0.4L20.8,40.9L30.1,55l12.7-9.4V96.3z"/>
</svg>
