<?xml version="1.0" encoding="utf-8"?>
<!-- Generator: Adobe Illustrator 19.0.1, SVG Export Plug-In . SVG Version: 6.00 Build 0)  -->
<svg version="1.1" id="Layer_1" xmlns="http://www.w3.org/2000/svg" xmlns:xlink="http://www.w3.org/1999/xlink" x="0px" y="0px"
	 viewBox="-657.3 501.7 140 140" style="enable-background:new -657.3 501.7 140 140;" xml:space="preserve">
<style type="text/css">
	.st0{opacity:0.4;}
	.st1{fill:none;stroke:#000000;stroke-width:2;stroke-miterlimit:10;}
	.st2{fill:#FFFFFF;stroke:#000000;stroke-width:2;stroke-miterlimit:10;}
	.st3{fill:none;stroke:#0A4456;stroke-width:2;stroke-miterlimit:10;}
	.st4{fill:#FFFFFF;stroke:#0A4456;stroke-width:2;stroke-miterlimit:10;}
	.st5{fill:none;stroke:#094456;stroke-width:2;stroke-miterlimit:10;}
	.st6{fill:#FFFFFF;stroke:#094456;stroke-width:2;stroke-miterlimit:10;}
</style>
<g>
	<rect x="-652.1" y="533.1" class="st5" width="129.8" height="77.3"/>
	<circle class="st6" cx="-587.5" cy="571.5" r="46.7"/>
	<circle class="st6" cx="-587.5" cy="571.5" r="30.8"/>
	<path class="st6" d="M-604.9,558.5c0,0,7.6,3.8,11.6,9.7c3.2,4.8,5.8,10.3,6.6,12.3c0.2,0.5,0.5,0.9,0.9,1.3l30.9,26.9
		c2.7,2.4,2.9,6.5,0.4,9.1l0,0c-2.6,2.7-6.9,2.5-9.3-0.3l-26.7-31.1c-0.4-0.5-0.9-0.8-1.4-1.1c-2.5-1.2-9.9-5.1-12.9-7.2
		c-3.6-2.6-9.2-10.9-9.2-10.9"/>
	<line class="st5" x1="-596.8" y1="578.8" x2="-611" y2="564.2"/>
	<line class="st5" x1="-593.5" y1="575.5" x2="-607.3" y2="561.1"/>
	<path class="st6" d="M-590.5,546.6c-2-1.5-4.8,0.3-4.3,2.7c1.1,5.1,5.1,13.2,12.7,19.9c13.1,11.5,16.9,12.2,20.3,14.9
		c2.6,2,16,15.6,21.9,21.6c1.5,1.6,4,1.5,5.5-0.1l0,0c1.4-1.5,1.4-4-0.1-5.4c-10.7-10.3-49.3-47.4-51.4-49.7
		C-586.9,549.3-588.8,547.9-590.5,546.6z"/>
</g>
</svg>
