<?xml version="1.0" encoding="utf-8"?>
<!-- Generator: Adobe Illustrator 19.0.1, SVG Export Plug-In . SVG Version: 6.00 Build 0)  -->
<svg version="1.1" id="Layer_1" xmlns="http://www.w3.org/2000/svg" xmlns:xlink="http://www.w3.org/1999/xlink" x="0px" y="0px"
	 viewBox="-359 161 240 240" style="enable-background:new -359 161 240 240;" xml:space="preserve">
<style type="text/css">
	.st0{fill:#008283;}
</style>
<path class="st0" d="M-132.2,161h-213.6c-7.3,0-13.2,5.9-13.2,13.2v213.5c0,7.3,5.9,13.2,13.2,13.2h114.9V308h-31.2v-36.2h31.3
	v-26.7c0-31,18.9-47.9,46.6-47.9c13.2,0,24.6,1,27.9,1.4V231h-19.2c-15,0-18,7.1-18,17.6v23.1h35.9l-4.7,36.2h-31.2V401h61.2
	c7.3,0,13.2-5.9,13.2-13.2V174.2C-119,166.9-124.9,161-132.2,161z"/>
</svg>
