<?xml version="1.0" encoding="utf-8"?>
<!-- Generator: Adobe Illustrator 19.0.1, SVG Export Plug-In . SVG Version: 6.00 Build 0)  -->
<svg version="1.1" id="Layer_1" xmlns="http://www.w3.org/2000/svg" xmlns:xlink="http://www.w3.org/1999/xlink" x="0px" y="0px"
	 viewBox="-656 972.2 140 140" style="enable-background:new -656 972.2 140 140;" xml:space="preserve">
<style type="text/css">
	.st0{opacity:0.4;}
	.st1{fill:none;stroke:#000000;stroke-width:2;stroke-miterlimit:10;}
	.st2{fill:#FFFFFF;stroke:#000000;stroke-width:2;stroke-miterlimit:10;}
	.st3{fill:none;stroke:#0A4456;stroke-width:2;stroke-miterlimit:10;}
	.st4{fill:#FFFFFF;stroke:#0A4456;stroke-width:2;stroke-miterlimit:10;}
	.st5{fill:none;stroke:#094456;stroke-width:2;stroke-miterlimit:10;}
	.st6{fill:#FFFFFF;stroke:#094456;stroke-width:2;stroke-miterlimit:10;}
</style>
<g>
	<line class="st5" x1="-654.3" y1="1083.8" x2="-519.2" y2="1083.8"/>
	<line class="st5" x1="-531.6" y1="1082.9" x2="-531.6" y2="1041.3"/>
	<path class="st5" d="M-538.6,997h14.1c0.8,0,1.5,0.7,1.5,1.5v41.6c0,0.8-0.7,1.5-1.5,1.5h-14.1c-0.8,0-1.5-0.7-1.5-1.5v-41.6
		C-540.1,997.7-539.4,997-538.6,997z"/>
	<circle class="st5" cx="-531.7" cy="1005.8" r="3.6"/>
	<circle class="st5" cx="-531.7" cy="1019.2" r="3.6"/>
	<circle class="st5" cx="-531.7" cy="1032.6" r="3.6"/>
	<path class="st5" d="M-645.4,1040.3v34c0,1.3,1,2.3,2.3,2.3h85.6c1.3,0,2.3-1,2.3-2.3v-34c0-2.6-2.1-4.6-4.6-4.6h-80.9
		C-643.3,1035.7-645.4,1037.7-645.4,1040.3z"/>
	<path class="st5" d="M-624.1,1057h-10.7c-0.4,0-0.7-0.3-0.7-0.7v-10.7c0-0.4,0.3-0.7,0.7-0.7h10.7c0.4,0,0.7,0.3,0.7,0.7v10.7
		C-623.4,1056.7-623.7,1057-624.1,1057z"/>
	<circle class="st6" cx="-625" cy="1077.3" r="6.2"/>
	<circle class="st6" cx="-575.9" cy="1077.4" r="6.1"/>
	<path class="st5" d="M-603.2,1057h-10.7c-0.4,0-0.7-0.3-0.7-0.7v-10.7c0-0.4,0.3-0.7,0.7-0.7h10.7c0.4,0,0.7,0.3,0.7,0.7v10.7
		C-602.4,1056.7-602.8,1057-603.2,1057z"/>
	<path class="st5" d="M-582.2,1057H-593c-0.4,0-0.7-0.3-0.7-0.7v-10.7c0-0.4,0.3-0.7,0.7-0.7h10.7c0.4,0,0.7,0.3,0.7,0.7v10.7
		C-581.5,1056.7-581.8,1057-582.2,1057z"/>
	<path class="st5" d="M-555.4,1043.4h-14.1c-1.3,0-2.3,1.3-1.9,2.5l4.8,15.8c0.2,0.8,1,1.4,1.9,1.4h8.9"/>
</g>
</svg>
