<?xml version="1.0" encoding="utf-8"?>
<!-- Generator: Adobe Illustrator 19.0.1, SVG Export Plug-In . SVG Version: 6.00 Build 0)  -->
<svg version="1.1" id="Layer_1" xmlns="http://www.w3.org/2000/svg" xmlns:xlink="http://www.w3.org/1999/xlink" x="0px" y="0px"
	 viewBox="-342.7 331 162.3 140" style="enable-background:new -342.7 331 162.3 140;" xml:space="preserve">
<style type="text/css">
	.st0{fill:none;stroke:#80786E;stroke-width:2;stroke-miterlimit:10;}
	.st1{fill:#D5C9BE;stroke:#80786E;stroke-width:2;stroke-miterlimit:10;}
	.st2{fill:#FFFFFF;stroke:#80786E;stroke-width:2;stroke-miterlimit:10;}
	.st3{fill:#ECE5DF;stroke:#80786E;stroke-width:2;stroke-miterlimit:10;}
</style>
<g>
	<line class="st0" x1="-341.5" y1="453.5" x2="-182.1" y2="453.5"/>
	<line class="st0" x1="-196.8" y1="452.4" x2="-196.8" y2="403.3"/>
	<path class="st1" d="M-205,351.1h16.6c0.9,0,1.8,0.8,1.8,1.8v49.1c0,0.9-0.8,1.8-1.8,1.8H-205c-0.9,0-1.8-0.8-1.8-1.8v-49.1
		C-206.8,351.9-206,351.1-205,351.1z"/>
	<circle class="st2" cx="-196.9" cy="361.4" r="4.2"/>
	<circle class="st2" cx="-196.9" cy="377.3" r="4.2"/>
	<circle class="st2" cx="-196.9" cy="393.1" r="4.2"/>
	<path class="st3" d="M-331,402.2v40.1c0,1.5,1.2,2.7,2.7,2.7h101c1.5,0,2.7-1.2,2.7-2.7v-40.1c0-3.1-2.5-5.4-5.4-5.4h-95.4
		C-328.5,396.7-331,399.1-331,402.2z"/>
	<path class="st2" d="M-305.9,421.9h-12.6c-0.5,0-0.8-0.4-0.8-0.8v-12.6c0-0.5,0.4-0.8,0.8-0.8h12.6c0.5,0,0.8,0.4,0.8,0.8V421
		C-305.1,421.5-305.4,421.9-305.9,421.9z"/>
	<circle class="st1" cx="-307" cy="445.8" r="7.3"/>
	<circle class="st1" cx="-249" cy="445.9" r="7.2"/>
	<path class="st2" d="M-281.2,421.9h-12.6c-0.5,0-0.8-0.4-0.8-0.8v-12.6c0-0.5,0.4-0.8,0.8-0.8h12.6c0.5,0,0.8,0.4,0.8,0.8V421
		C-280.3,421.5-280.8,421.9-281.2,421.9z"/>
	<path class="st2" d="M-256.5,421.9h-12.7c-0.5,0-0.8-0.4-0.8-0.8v-12.6c0-0.5,0.4-0.8,0.8-0.8h12.6c0.5,0,0.8,0.4,0.8,0.8V421
		C-255.6,421.5-256,421.9-256.5,421.9z"/>
	<path class="st2" d="M-225.5,405.8l-14.9,0c-1.5,0-2.7,1.5-2.2,2.9l3.9,18c0.2,0.9,3,2.3,4,2.3l9.3,0"/>
</g>
</svg>
