<?xml version="1.0" encoding="utf-8"?>
<!-- Generator: Adobe Illustrator 19.0.1, SVG Export Plug-In . SVG Version: 6.00 Build 0)  -->
<svg version="1.1" id="Layer_1" xmlns="http://www.w3.org/2000/svg" xmlns:xlink="http://www.w3.org/1999/xlink" x="0px" y="0px"
	 viewBox="-429 218 100 125" style="enable-background:new -429 218 100 125;" xml:space="preserve">
<style type="text/css">
	.st0{fill:none;}
	.st1{fill:#008283;}
	.st2{fill:#74D0CC;}
</style>
<path class="st0" d="M-391.5,288.7c-0.8-0.5-1.1-1.5-0.6-2.2s1.5-1.1,2.2-0.6l9.1,5.3V280c0-0.9,0.7-1.6,1.6-1.6s1.6,0.7,1.6,1.6
	v4.4l4-2.3c0.8-0.5,1.8-0.2,2.2,0.6c0.5,0.8,0.2,1.8-0.6,2.2l-4.1,2.4c0,0,0,0,0,0l-1.5,0.9v16.9c14.9-0.6,26.8-9.7,26.8-20.7
	c0-5.5-3-17.3-8.6-28.2c-3.6-7-10.9-18.7-19.8-18.7s-16.2,11.7-19.8,18.7c-5.6,10.9-8.6,22.6-8.6,28.2c0,11,11.8,20.1,26.7,20.7
	v-10.2L-391.5,288.7z"/>
<path class="st1" d="M-347.3,284.4c0-7.1-3.8-19.5-9-29.7c-3.9-7.7-12.1-20.5-22.7-20.5s-18.8,12.9-22.7,20.5
	c-5.2,10.1-9,22.6-9,29.7c0,12.8,13.3,23.4,30,24v20.2c0,0.9,0.7,1.6,1.6,1.6s1.6-0.7,1.6-1.6v-20.2
	C-360.7,307.8-347.3,297.3-347.3,284.4z M-407.4,284.4c0-5.5,3-17.3,8.6-28.2c3.6-7,10.9-18.7,19.8-18.7s16.2,11.7,19.8,18.7
	c5.6,10.9,8.6,22.6,8.6,28.2c0,11.1-11.9,20.1-26.8,20.7v-16.9l1.5-0.9c0,0,0,0,0,0l4.1-2.4c0.8-0.5,1.1-1.5,0.6-2.2
	c-0.5-0.8-1.5-1.1-2.2-0.6l-4,2.3V280c0-0.9-0.7-1.6-1.6-1.6s-1.6,0.7-1.6,1.6v11.1l-9.1-5.3c-0.8-0.5-1.8-0.2-2.2,0.6
	c-0.5,0.8-0.2,1.8,0.6,2.2l10.8,6.2v10.2C-395.6,304.5-407.4,295.4-407.4,284.4z"/>
<path class="st2" d="M-407.4,284.4c0-5.5,3-17.3,8.6-28.2c3.6-7,10.9-18.7,19.8-18.7s16.2,11.7,19.8,18.7
	c5.6,10.9,8.6,22.6,8.6,28.2c0,11.1-11.9,20.1-26.8,20.7v-16.9l1.5-0.9c0,0,0,0,0,0l4.1-2.4c0.8-0.5,1.1-1.5,0.6-2.2
	c-0.5-0.8-1.5-1.1-2.2-0.6l-4,2.3V280c0-0.9-0.7-1.6-1.6-1.6s-1.6,0.7-1.6,1.6v11.1l-9.1-5.3c-0.8-0.5-1.8-0.2-2.2,0.6
	c-0.5,0.8-0.2,1.8,0.6,2.2l10.8,6.2v10.2C-395.6,304.5-407.4,295.4-407.4,284.4z"/>
</svg>
